{
	"asset":{
		"generator":"Khronos glTF Blender I/O v3.5.30",
		"version":"2.0"
	},
	"extensionsUsed":[
		"KHR_materials_specular",
		"KHR_materials_ior"
	],
	"scene":0,
	"scenes":[
		{
			"name":"Scene",
			"nodes":[
				0
			]
		}
	],
	"nodes":[
		{
			"mesh":0,
			"name":"m7002b0001 Part 0.0",
			"rotation":[
				0.7071068286895752,
				0,
				0,
				0.7071068286895752
			]
		}
	],
	"materials":[
		{
			"doubleSided":true,
			"emissiveFactor":[
				1,
				1,
				1
			],
			"emissiveTexture":{
				"index":0
			},
			"extensions":{
				"KHR_materials_specular":{
					"specularColorTexture":{
						"index":1
					}
				},
				"KHR_materials_ior":{
					"ior":1.4500000476837158
				}
			},
			"name":"mt_m7002b0001_a",
			"normalTexture":{
				"index":2
			},
			"pbrMetallicRoughness":{
				"baseColorTexture":{
					"index":3
				},
				"roughnessFactor":0.9292893409729004
			}
		}
	],
	"meshes":[
		{
			"name":"m7002b0001 Part 0.0 Mesh Attribute",
			"primitives":[
				{
					"attributes":{
						"POSITION":0,
						"TEXCOORD_0":1,
						"TEXCOORD_1":2,
						"TEXCOORD_2":3,
						"NORMAL":4
					},
					"indices":5,
					"material":0
				}
			]
		}
	],
	"textures":[
		{
			"sampler":0,
			"source":0
		},
		{
			"sampler":0,
			"source":1
		},
		{
			"sampler":0,
			"source":2
		},
		{
			"sampler":0,
			"source":3
		}
	],
	"images":[
		{
			"bufferView":6,
			"mimeType":"image/png",
			"name":"mt_m7002b0001_a_e"
		},
		{
			"bufferView":7,
			"mimeType":"image/png",
			"name":"Image"
		},
		{
			"bufferView":8,
			"mimeType":"image/png",
			"name":"mt_m7002b0001_a_n"
		},
		{
			"bufferView":9,
			"mimeType":"image/png",
			"name":"mt_m7002b0001_a_d"
		}
	],
	"accessors":[
		{
			"bufferView":0,
			"componentType":5126,
			"count":776,
			"max":[
				0.39892578125,
				0.314208984375,
				1.2993812561035156e-05
			],
			"min":[
				-0.39892578125,
				-1.10546875,
				-1.0615234375
			],
			"type":"VEC3"
		},
		{
			"bufferView":1,
			"componentType":5126,
			"count":776,
			"type":"VEC2"
		},
		{
			"bufferView":2,
			"componentType":5126,
			"count":776,
			"type":"VEC2"
		},
		{
			"bufferView":3,
			"componentType":5126,
			"count":776,
			"type":"VEC2"
		},
		{
			"bufferView":4,
			"componentType":5126,
			"count":776,
			"type":"VEC3"
		},
		{
			"bufferView":5,
			"componentType":5123,
			"count":2994,
			"type":"SCALAR"
		}
	],
	"bufferViews":[
		{
			"buffer":0,
			"byteLength":9312,
			"byteOffset":0,
			"target":34962
		},
		{
			"buffer":0,
			"byteLength":6208,
			"byteOffset":9312,
			"target":34962
		},
		{
			"buffer":0,
			"byteLength":6208,
			"byteOffset":15520,
			"target":34962
		},
		{
			"buffer":0,
			"byteLength":6208,
			"byteOffset":21728,
			"target":34962
		},
		{
			"buffer":0,
			"byteLength":9312,
			"byteOffset":27936,
			"target":34962
		},
		{
			"buffer":0,
			"byteLength":5988,
			"byteOffset":37248,
			"target":34963
		},
		{
			"buffer":0,
			"byteLength":55657,
			"byteOffset":43236
		},
		{
			"buffer":0,
			"byteLength":74573,
			"byteOffset":98896
		},
		{
			"buffer":0,
			"byteLength":174829,
			"byteOffset":173472
		},
		{
			"buffer":0,
			"byteLength":144221,
			"byteOffset":348304
		}
	],
	"samplers":[
		{
			"magFilter":9729,
			"minFilter":9987
		}
	],
	"buffers":[
		{
			"byteLength":492528,
			"uri":"data:application/octet-stream;base64,"
		}
	]
}
